<mxfile host="Electron" modified="2024-01-19T14:50:51.684Z" agent="Mozilla/5.0 (Windows NT 10.0; Win64; x64) AppleWebKit/537.36 (KHTML, like Gecko) draw.io/22.1.21 Chrome/120.0.6099.109 Electron/28.1.0 Safari/537.36" etag="bjAfNMDwy2jWGbCtWsxg" version="22.1.21" type="device">
  <diagram name="Page-1" id="zR7LsNewzfryzFqCTl4k">
    <mxGraphModel dx="2440" dy="2508" grid="1" gridSize="10" guides="1" tooltips="1" connect="1" arrows="1" fold="1" page="1" pageScale="1" pageWidth="850" pageHeight="1100" math="0" shadow="0">
      <root>
        <mxCell id="0" />
        <mxCell id="1" parent="0" />
        <mxCell id="GzmpIsJMWXtsvFWi_bjF-13" value="Control plane node&lt;br&gt;&lt;span style=&quot;font-weight: normal;&quot;&gt;172.16.0.102&lt;/span&gt;" style="rounded=1;whiteSpace=wrap;html=1;fillColor=#f5f5f5;fontColor=#333333;strokeColor=#666666;align=left;verticalAlign=top;fontStyle=1;fontSize=18;spacingTop=5;spacing=0;spacingLeft=10;arcSize=3;" vertex="1" parent="1">
          <mxGeometry x="520" y="240" width="360" height="360" as="geometry" />
        </mxCell>
        <mxCell id="GzmpIsJMWXtsvFWi_bjF-1" value="Control plane node&lt;br&gt;&lt;span style=&quot;font-weight: normal;&quot;&gt;172.16.0.101&lt;/span&gt;" style="rounded=1;whiteSpace=wrap;html=1;fillColor=#f5f5f5;fontColor=#333333;strokeColor=#666666;align=left;verticalAlign=top;fontStyle=1;fontSize=18;spacingTop=5;spacing=0;spacingLeft=10;arcSize=3;" vertex="1" parent="1">
          <mxGeometry x="80" y="240" width="360" height="360" as="geometry" />
        </mxCell>
        <mxCell id="GzmpIsJMWXtsvFWi_bjF-21" value="Control plane node&lt;br&gt;&lt;span style=&quot;font-weight: normal;&quot;&gt;172.16.0.103&lt;/span&gt;" style="rounded=1;whiteSpace=wrap;html=1;fillColor=#f5f5f5;fontColor=#333333;strokeColor=#666666;align=left;verticalAlign=top;fontStyle=1;fontSize=18;spacingTop=5;spacing=0;spacingLeft=10;arcSize=3;" vertex="1" parent="1">
          <mxGeometry x="960" y="240" width="360" height="360" as="geometry" />
        </mxCell>
        <mxCell id="GzmpIsJMWXtsvFWi_bjF-34" value="stacked etcd cluster" style="rounded=0;whiteSpace=wrap;html=1;fillColor=#d5e8d4;strokeColor=default;dashed=1;verticalAlign=bottom;fontSize=20;spacingBottom=10;perimeterSpacing=2;dashPattern=12 12;glass=0;" vertex="1" parent="1">
          <mxGeometry x="90" y="500" width="1220" height="120" as="geometry" />
        </mxCell>
        <mxCell id="GzmpIsJMWXtsvFWi_bjF-4" value="apiserver" style="rounded=0;whiteSpace=wrap;html=1;fillColor=#98BAE6;strokeColor=default;fontSize=20;" vertex="1" parent="1">
          <mxGeometry x="120" y="320" width="280" height="60" as="geometry" />
        </mxCell>
        <mxCell id="GzmpIsJMWXtsvFWi_bjF-5" value="controller-manager" style="rounded=0;whiteSpace=wrap;html=1;fillColor=#dae8fc;strokeColor=default;fontSize=20;" vertex="1" parent="1">
          <mxGeometry x="120" y="380" width="280" height="60" as="geometry" />
        </mxCell>
        <mxCell id="GzmpIsJMWXtsvFWi_bjF-6" value="scheduler" style="rounded=0;whiteSpace=wrap;html=1;fillColor=#dae8fc;strokeColor=default;fontSize=20;" vertex="1" parent="1">
          <mxGeometry x="120" y="440" width="280" height="60" as="geometry" />
        </mxCell>
        <mxCell id="GzmpIsJMWXtsvFWi_bjF-8" style="edgeStyle=orthogonalEdgeStyle;rounded=0;orthogonalLoop=1;jettySize=auto;html=1;exitX=1;exitY=0.5;exitDx=0;exitDy=0;entryX=1;entryY=0.5;entryDx=0;entryDy=0;startArrow=classic;startFill=1;" edge="1" parent="1" source="GzmpIsJMWXtsvFWi_bjF-7" target="GzmpIsJMWXtsvFWi_bjF-4">
          <mxGeometry relative="1" as="geometry" />
        </mxCell>
        <mxCell id="GzmpIsJMWXtsvFWi_bjF-15" value="apiserver" style="rounded=0;whiteSpace=wrap;html=1;fillColor=#98BAE6;strokeColor=default;fontSize=20;" vertex="1" parent="1">
          <mxGeometry x="560" y="320" width="280" height="60" as="geometry" />
        </mxCell>
        <mxCell id="GzmpIsJMWXtsvFWi_bjF-16" value="controller-manager" style="rounded=0;whiteSpace=wrap;html=1;fillColor=#dae8fc;strokeColor=default;fontSize=20;" vertex="1" parent="1">
          <mxGeometry x="560" y="380" width="280" height="60" as="geometry" />
        </mxCell>
        <mxCell id="GzmpIsJMWXtsvFWi_bjF-17" value="scheduler" style="rounded=0;whiteSpace=wrap;html=1;fillColor=#dae8fc;strokeColor=default;fontSize=20;" vertex="1" parent="1">
          <mxGeometry x="560" y="440" width="280" height="60" as="geometry" />
        </mxCell>
        <mxCell id="GzmpIsJMWXtsvFWi_bjF-19" style="edgeStyle=orthogonalEdgeStyle;rounded=0;orthogonalLoop=1;jettySize=auto;html=1;exitX=1;exitY=0.5;exitDx=0;exitDy=0;entryX=1;entryY=0.5;entryDx=0;entryDy=0;startArrow=classic;startFill=1;" edge="1" parent="1" source="GzmpIsJMWXtsvFWi_bjF-18" target="GzmpIsJMWXtsvFWi_bjF-15">
          <mxGeometry relative="1" as="geometry" />
        </mxCell>
        <mxCell id="GzmpIsJMWXtsvFWi_bjF-23" value="apiserver" style="rounded=0;whiteSpace=wrap;html=1;fillColor=#98BAE6;strokeColor=default;fontSize=20;" vertex="1" parent="1">
          <mxGeometry x="1000" y="320" width="280" height="60" as="geometry" />
        </mxCell>
        <mxCell id="GzmpIsJMWXtsvFWi_bjF-24" value="controller-manager" style="rounded=0;whiteSpace=wrap;html=1;fillColor=#dae8fc;strokeColor=default;fontSize=20;" vertex="1" parent="1">
          <mxGeometry x="1000" y="380" width="280" height="60" as="geometry" />
        </mxCell>
        <mxCell id="GzmpIsJMWXtsvFWi_bjF-25" value="scheduler" style="rounded=0;whiteSpace=wrap;html=1;fillColor=#dae8fc;strokeColor=default;fontSize=20;" vertex="1" parent="1">
          <mxGeometry x="1000" y="440" width="280" height="60" as="geometry" />
        </mxCell>
        <mxCell id="GzmpIsJMWXtsvFWi_bjF-27" style="edgeStyle=orthogonalEdgeStyle;rounded=0;orthogonalLoop=1;jettySize=auto;html=1;exitX=1;exitY=0.5;exitDx=0;exitDy=0;entryX=1;entryY=0.5;entryDx=0;entryDy=0;startArrow=classic;startFill=1;" edge="1" parent="1" source="GzmpIsJMWXtsvFWi_bjF-26" target="GzmpIsJMWXtsvFWi_bjF-23">
          <mxGeometry relative="1" as="geometry" />
        </mxCell>
        <mxCell id="GzmpIsJMWXtsvFWi_bjF-38" value="" style="group" vertex="1" connectable="0" parent="1">
          <mxGeometry x="1000" y="500" width="280" height="60" as="geometry" />
        </mxCell>
        <mxCell id="GzmpIsJMWXtsvFWi_bjF-26" value="etcd" style="rounded=0;whiteSpace=wrap;html=1;fillColor=#97D077;strokeColor=default;fontSize=20;" vertex="1" parent="GzmpIsJMWXtsvFWi_bjF-38">
          <mxGeometry width="280" height="60" as="geometry" />
        </mxCell>
        <mxCell id="GzmpIsJMWXtsvFWi_bjF-37" value="" style="strokeWidth=2;html=1;shape=mxgraph.flowchart.database;whiteSpace=wrap;" vertex="1" parent="GzmpIsJMWXtsvFWi_bjF-38">
          <mxGeometry x="40" y="10" width="30" height="40" as="geometry" />
        </mxCell>
        <mxCell id="GzmpIsJMWXtsvFWi_bjF-39" value="" style="group" vertex="1" connectable="0" parent="1">
          <mxGeometry x="560" y="500" width="280" height="60" as="geometry" />
        </mxCell>
        <mxCell id="GzmpIsJMWXtsvFWi_bjF-18" value="etcd" style="rounded=0;whiteSpace=wrap;html=1;fillColor=#97d077;strokeColor=default;fontSize=20;" vertex="1" parent="GzmpIsJMWXtsvFWi_bjF-39">
          <mxGeometry width="280" height="60" as="geometry" />
        </mxCell>
        <mxCell id="GzmpIsJMWXtsvFWi_bjF-36" value="" style="strokeWidth=2;html=1;shape=mxgraph.flowchart.database;whiteSpace=wrap;" vertex="1" parent="GzmpIsJMWXtsvFWi_bjF-39">
          <mxGeometry x="40" y="10" width="30" height="40" as="geometry" />
        </mxCell>
        <mxCell id="GzmpIsJMWXtsvFWi_bjF-40" value="" style="group" vertex="1" connectable="0" parent="1">
          <mxGeometry x="120" y="500" width="280" height="60" as="geometry" />
        </mxCell>
        <mxCell id="GzmpIsJMWXtsvFWi_bjF-7" value="etcd" style="rounded=0;whiteSpace=wrap;html=1;fillColor=#97D077;strokeColor=default;fontSize=20;" vertex="1" parent="GzmpIsJMWXtsvFWi_bjF-40">
          <mxGeometry width="280" height="60" as="geometry" />
        </mxCell>
        <mxCell id="GzmpIsJMWXtsvFWi_bjF-35" value="" style="strokeWidth=2;html=1;shape=mxgraph.flowchart.database;whiteSpace=wrap;" vertex="1" parent="GzmpIsJMWXtsvFWi_bjF-40">
          <mxGeometry x="40" y="10" width="30" height="40" as="geometry" />
        </mxCell>
        <mxCell id="GzmpIsJMWXtsvFWi_bjF-46" style="edgeStyle=orthogonalEdgeStyle;rounded=0;orthogonalLoop=1;jettySize=auto;html=1;exitX=1;exitY=0.5;exitDx=0;exitDy=0;entryX=0;entryY=0.5;entryDx=0;entryDy=0;startArrow=classic;startFill=1;strokeColor=#999999;" edge="1" parent="1" source="GzmpIsJMWXtsvFWi_bjF-44" target="GzmpIsJMWXtsvFWi_bjF-45">
          <mxGeometry relative="1" as="geometry" />
        </mxCell>
        <mxCell id="GzmpIsJMWXtsvFWi_bjF-47" value="VIP 172.16.0.100" style="edgeLabel;html=1;align=center;verticalAlign=middle;resizable=0;points=[];spacing=5;spacingTop=5;spacingLeft=5;spacingBottom=5;spacingRight=5;fontSize=18;fontColor=#999999;" vertex="1" connectable="0" parent="GzmpIsJMWXtsvFWi_bjF-46">
          <mxGeometry relative="1" as="geometry">
            <mxPoint as="offset" />
          </mxGeometry>
        </mxCell>
        <mxCell id="GzmpIsJMWXtsvFWi_bjF-49" style="edgeStyle=orthogonalEdgeStyle;rounded=0;orthogonalLoop=1;jettySize=auto;html=1;exitX=0.5;exitY=1;exitDx=0;exitDy=0;entryX=0.25;entryY=0;entryDx=0;entryDy=0;jumpStyle=arc;fillColor=#dae8fc;strokeColor=#6c8ebf;strokeWidth=1;" edge="1" parent="1" source="GzmpIsJMWXtsvFWi_bjF-44" target="GzmpIsJMWXtsvFWi_bjF-1">
          <mxGeometry relative="1" as="geometry">
            <Array as="points">
              <mxPoint x="460" y="170" />
              <mxPoint x="170" y="170" />
            </Array>
          </mxGeometry>
        </mxCell>
        <mxCell id="GzmpIsJMWXtsvFWi_bjF-50" style="edgeStyle=orthogonalEdgeStyle;rounded=0;orthogonalLoop=1;jettySize=auto;html=1;exitX=0.5;exitY=1;exitDx=0;exitDy=0;entryX=0.25;entryY=0;entryDx=0;entryDy=0;jumpStyle=arc;fillColor=#dae8fc;strokeColor=#6c8ebf;strokeWidth=1;" edge="1" parent="1" source="GzmpIsJMWXtsvFWi_bjF-44" target="GzmpIsJMWXtsvFWi_bjF-13">
          <mxGeometry relative="1" as="geometry">
            <Array as="points">
              <mxPoint x="460" y="170" />
              <mxPoint x="610" y="170" />
            </Array>
          </mxGeometry>
        </mxCell>
        <mxCell id="GzmpIsJMWXtsvFWi_bjF-51" style="edgeStyle=orthogonalEdgeStyle;rounded=0;orthogonalLoop=1;jettySize=auto;html=1;exitX=0.5;exitY=1;exitDx=0;exitDy=0;entryX=0.25;entryY=0;entryDx=0;entryDy=0;jumpStyle=arc;fillColor=#dae8fc;strokeColor=#6c8ebf;strokeWidth=1;" edge="1" parent="1" source="GzmpIsJMWXtsvFWi_bjF-44" target="GzmpIsJMWXtsvFWi_bjF-21">
          <mxGeometry relative="1" as="geometry">
            <Array as="points">
              <mxPoint x="460" y="170" />
              <mxPoint x="1050" y="170" />
            </Array>
          </mxGeometry>
        </mxCell>
        <mxCell id="GzmpIsJMWXtsvFWi_bjF-44" value="LB1 - Leader&lt;br&gt;&lt;span style=&quot;font-weight: normal;&quot;&gt;172.16.0.51&lt;br&gt;172.16.0.100&lt;br&gt;&lt;/span&gt;" style="rounded=1;whiteSpace=wrap;html=1;fillColor=#ffe6cc;strokeColor=#d79b00;align=left;verticalAlign=top;fontStyle=1;fontSize=18;spacingTop=5;spacing=0;spacingLeft=10;arcSize=8;" vertex="1" parent="1">
          <mxGeometry x="320" width="280" height="140" as="geometry" />
        </mxCell>
        <mxCell id="GzmpIsJMWXtsvFWi_bjF-52" style="edgeStyle=orthogonalEdgeStyle;rounded=0;orthogonalLoop=1;jettySize=auto;html=1;exitX=0.5;exitY=1;exitDx=0;exitDy=0;entryX=0.75;entryY=0;entryDx=0;entryDy=0;jumpStyle=arc;fillColor=#d5e8d4;strokeColor=#82b366;strokeWidth=1;" edge="1" parent="1" source="GzmpIsJMWXtsvFWi_bjF-45" target="GzmpIsJMWXtsvFWi_bjF-21">
          <mxGeometry relative="1" as="geometry">
            <Array as="points">
              <mxPoint x="940" y="200" />
              <mxPoint x="1230" y="200" />
            </Array>
          </mxGeometry>
        </mxCell>
        <mxCell id="GzmpIsJMWXtsvFWi_bjF-53" style="edgeStyle=orthogonalEdgeStyle;rounded=0;orthogonalLoop=1;jettySize=auto;html=1;exitX=0.5;exitY=1;exitDx=0;exitDy=0;entryX=0.75;entryY=0;entryDx=0;entryDy=0;jumpStyle=arc;fillColor=#d5e8d4;strokeColor=#82b366;strokeWidth=1;" edge="1" parent="1" source="GzmpIsJMWXtsvFWi_bjF-45" target="GzmpIsJMWXtsvFWi_bjF-13">
          <mxGeometry relative="1" as="geometry">
            <Array as="points">
              <mxPoint x="940" y="200" />
              <mxPoint x="790" y="200" />
            </Array>
          </mxGeometry>
        </mxCell>
        <mxCell id="GzmpIsJMWXtsvFWi_bjF-54" style="edgeStyle=orthogonalEdgeStyle;rounded=0;orthogonalLoop=1;jettySize=auto;html=1;exitX=0.5;exitY=1;exitDx=0;exitDy=0;entryX=0.75;entryY=0;entryDx=0;entryDy=0;jumpStyle=arc;fillColor=#d5e8d4;strokeColor=#82b366;strokeWidth=1;" edge="1" parent="1" source="GzmpIsJMWXtsvFWi_bjF-45" target="GzmpIsJMWXtsvFWi_bjF-1">
          <mxGeometry relative="1" as="geometry">
            <Array as="points">
              <mxPoint x="940" y="200" />
              <mxPoint x="350" y="200" />
            </Array>
          </mxGeometry>
        </mxCell>
        <mxCell id="GzmpIsJMWXtsvFWi_bjF-45" value="LB2 - Backup&lt;br&gt;&lt;span style=&quot;font-weight: normal;&quot;&gt;172.16.0.52&lt;/span&gt;" style="rounded=1;whiteSpace=wrap;html=1;fillColor=#ffe6cc;strokeColor=#d79b00;align=left;verticalAlign=top;fontStyle=1;fontSize=18;spacingTop=5;spacing=0;spacingLeft=10;arcSize=8;" vertex="1" parent="1">
          <mxGeometry x="800" width="280" height="140" as="geometry" />
        </mxCell>
        <mxCell id="GzmpIsJMWXtsvFWi_bjF-55" value="keepalived" style="rounded=0;whiteSpace=wrap;html=1;fillColor=#fff2cc;strokeColor=#d6b656;" vertex="1" parent="1">
          <mxGeometry x="460" y="55" width="140" height="30" as="geometry" />
        </mxCell>
        <mxCell id="GzmpIsJMWXtsvFWi_bjF-56" value="keepalived" style="rounded=0;whiteSpace=wrap;html=1;fillColor=#fff2cc;strokeColor=#d6b656;" vertex="1" parent="1">
          <mxGeometry x="800" y="55" width="140" height="30" as="geometry" />
        </mxCell>
        <mxCell id="GzmpIsJMWXtsvFWi_bjF-57" value="HAproxy" style="rounded=0;whiteSpace=wrap;html=1;fillColor=#dae8fc;strokeColor=#6c8ebf;" vertex="1" parent="1">
          <mxGeometry x="390" y="110" width="140" height="30" as="geometry" />
        </mxCell>
        <mxCell id="GzmpIsJMWXtsvFWi_bjF-58" value="HAproxy" style="rounded=0;whiteSpace=wrap;html=1;fillColor=#d5e8d4;strokeColor=#82b366;" vertex="1" parent="1">
          <mxGeometry x="870" y="110" width="140" height="30" as="geometry" />
        </mxCell>
        <mxCell id="GzmpIsJMWXtsvFWi_bjF-69" style="edgeStyle=orthogonalEdgeStyle;rounded=0;orthogonalLoop=1;jettySize=auto;html=1;exitX=0.5;exitY=1;exitDx=0;exitDy=0;entryX=0.5;entryY=0;entryDx=0;entryDy=0;fillColor=#647687;strokeColor=#314354;" edge="1" parent="1" source="GzmpIsJMWXtsvFWi_bjF-59" target="GzmpIsJMWXtsvFWi_bjF-44">
          <mxGeometry relative="1" as="geometry" />
        </mxCell>
        <mxCell id="GzmpIsJMWXtsvFWi_bjF-70" style="edgeStyle=orthogonalEdgeStyle;rounded=0;orthogonalLoop=1;jettySize=auto;html=1;exitX=0.5;exitY=1;exitDx=0;exitDy=0;entryX=0.5;entryY=0;entryDx=0;entryDy=0;fillColor=#647687;strokeColor=#314354;" edge="1" parent="1" source="GzmpIsJMWXtsvFWi_bjF-90" target="GzmpIsJMWXtsvFWi_bjF-44">
          <mxGeometry relative="1" as="geometry">
            <mxPoint x="700" y="-80.00000000000023" as="sourcePoint" />
          </mxGeometry>
        </mxCell>
        <mxCell id="GzmpIsJMWXtsvFWi_bjF-71" style="edgeStyle=orthogonalEdgeStyle;rounded=0;orthogonalLoop=1;jettySize=auto;html=1;exitX=0.5;exitY=1;exitDx=0;exitDy=0;entryX=0.5;entryY=0;entryDx=0;entryDy=0;fillColor=#647687;strokeColor=#314354;" edge="1" parent="1" source="GzmpIsJMWXtsvFWi_bjF-96" target="GzmpIsJMWXtsvFWi_bjF-44">
          <mxGeometry relative="1" as="geometry">
            <mxPoint x="980" y="-80.00000000000023" as="sourcePoint" />
          </mxGeometry>
        </mxCell>
        <mxCell id="GzmpIsJMWXtsvFWi_bjF-73" value="" style="aspect=fixed;sketch=0;html=1;dashed=0;whitespace=wrap;fillColor=#2875E2;strokeColor=#ffffff;points=[[0.005,0.63,0],[0.1,0.2,0],[0.9,0.2,0],[0.5,0,0],[0.995,0.63,0],[0.72,0.99,0],[0.5,1,0],[0.28,0.99,0]];shape=mxgraph.kubernetes.icon2;kubernetesLabel=1;prIcon=control_plane" vertex="1" parent="1">
          <mxGeometry x="380" y="250" width="50" height="48" as="geometry" />
        </mxCell>
        <mxCell id="GzmpIsJMWXtsvFWi_bjF-74" value="" style="aspect=fixed;sketch=0;html=1;dashed=0;whitespace=wrap;fillColor=#2875E2;strokeColor=#ffffff;points=[[0.005,0.63,0],[0.1,0.2,0],[0.9,0.2,0],[0.5,0,0],[0.995,0.63,0],[0.72,0.99,0],[0.5,1,0],[0.28,0.99,0]];shape=mxgraph.kubernetes.icon2;kubernetesLabel=1;prIcon=control_plane" vertex="1" parent="1">
          <mxGeometry x="820" y="250" width="50" height="48" as="geometry" />
        </mxCell>
        <mxCell id="GzmpIsJMWXtsvFWi_bjF-75" value="" style="aspect=fixed;sketch=0;html=1;dashed=0;whitespace=wrap;fillColor=#2875E2;strokeColor=#ffffff;points=[[0.005,0.63,0],[0.1,0.2,0],[0.9,0.2,0],[0.5,0,0],[0.995,0.63,0],[0.72,0.99,0],[0.5,1,0],[0.28,0.99,0]];shape=mxgraph.kubernetes.icon2;kubernetesLabel=1;prIcon=control_plane" vertex="1" parent="1">
          <mxGeometry x="1260" y="250" width="50" height="48" as="geometry" />
        </mxCell>
        <mxCell id="GzmpIsJMWXtsvFWi_bjF-84" value="" style="group" vertex="1" connectable="0" parent="1">
          <mxGeometry x="300" y="-250" width="240" height="170" as="geometry" />
        </mxCell>
        <mxCell id="GzmpIsJMWXtsvFWi_bjF-59" value="Worker node&lt;br&gt;&lt;span style=&quot;font-weight: normal;&quot;&gt;172.16.0.201&lt;/span&gt;" style="rounded=1;whiteSpace=wrap;html=1;fillColor=#f5f5f5;fontColor=#333333;strokeColor=#666666;align=left;verticalAlign=top;fontStyle=1;fontSize=18;spacingTop=5;spacing=0;spacingLeft=10;arcSize=3;" vertex="1" parent="GzmpIsJMWXtsvFWi_bjF-84">
          <mxGeometry width="240" height="170" as="geometry" />
        </mxCell>
        <mxCell id="GzmpIsJMWXtsvFWi_bjF-72" value="" style="aspect=fixed;sketch=0;html=1;dashed=0;whitespace=wrap;fillColor=#2875E2;strokeColor=#ffffff;points=[[0.005,0.63,0],[0.1,0.2,0],[0.9,0.2,0],[0.5,0,0],[0.995,0.63,0],[0.72,0.99,0],[0.5,1,0],[0.28,0.99,0]];shape=mxgraph.kubernetes.icon2;kubernetesLabel=1;prIcon=node" vertex="1" parent="GzmpIsJMWXtsvFWi_bjF-84">
          <mxGeometry x="180" y="10" width="50" height="48" as="geometry" />
        </mxCell>
        <mxCell id="GzmpIsJMWXtsvFWi_bjF-78" value="kubelet" style="rounded=0;whiteSpace=wrap;html=1;fillColor=#dae8fc;strokeColor=#6c8ebf;" vertex="1" parent="GzmpIsJMWXtsvFWi_bjF-84">
          <mxGeometry x="50" y="110" width="140" height="30" as="geometry" />
        </mxCell>
        <mxCell id="GzmpIsJMWXtsvFWi_bjF-79" value="kube-proxy" style="rounded=0;whiteSpace=wrap;html=1;fillColor=#dae8fc;strokeColor=#6c8ebf;" vertex="1" parent="GzmpIsJMWXtsvFWi_bjF-84">
          <mxGeometry x="50" y="80" width="140" height="30" as="geometry" />
        </mxCell>
        <mxCell id="GzmpIsJMWXtsvFWi_bjF-80" value="containerd" style="rounded=0;whiteSpace=wrap;html=1;fillColor=#bac8d3;strokeColor=#23445d;" vertex="1" parent="GzmpIsJMWXtsvFWi_bjF-84">
          <mxGeometry x="50" y="140" width="140" height="30" as="geometry" />
        </mxCell>
        <mxCell id="GzmpIsJMWXtsvFWi_bjF-85" value="" style="group" vertex="1" connectable="0" parent="1">
          <mxGeometry x="580" y="-250" width="240" height="170" as="geometry" />
        </mxCell>
        <mxCell id="GzmpIsJMWXtsvFWi_bjF-86" value="Worker node&lt;br&gt;&lt;span style=&quot;font-weight: normal;&quot;&gt;172.16.0.202&lt;/span&gt;" style="rounded=1;whiteSpace=wrap;html=1;fillColor=#f5f5f5;fontColor=#333333;strokeColor=#666666;align=left;verticalAlign=top;fontStyle=1;fontSize=18;spacingTop=5;spacing=0;spacingLeft=10;arcSize=3;" vertex="1" parent="GzmpIsJMWXtsvFWi_bjF-85">
          <mxGeometry width="240" height="170" as="geometry" />
        </mxCell>
        <mxCell id="GzmpIsJMWXtsvFWi_bjF-87" value="" style="aspect=fixed;sketch=0;html=1;dashed=0;whitespace=wrap;fillColor=#2875E2;strokeColor=#ffffff;points=[[0.005,0.63,0],[0.1,0.2,0],[0.9,0.2,0],[0.5,0,0],[0.995,0.63,0],[0.72,0.99,0],[0.5,1,0],[0.28,0.99,0]];shape=mxgraph.kubernetes.icon2;kubernetesLabel=1;prIcon=node" vertex="1" parent="GzmpIsJMWXtsvFWi_bjF-85">
          <mxGeometry x="180" y="10" width="50" height="48" as="geometry" />
        </mxCell>
        <mxCell id="GzmpIsJMWXtsvFWi_bjF-88" value="kubelet" style="rounded=0;whiteSpace=wrap;html=1;fillColor=#dae8fc;strokeColor=#6c8ebf;" vertex="1" parent="GzmpIsJMWXtsvFWi_bjF-85">
          <mxGeometry x="50" y="110" width="140" height="30" as="geometry" />
        </mxCell>
        <mxCell id="GzmpIsJMWXtsvFWi_bjF-89" value="kube-proxy" style="rounded=0;whiteSpace=wrap;html=1;fillColor=#dae8fc;strokeColor=#6c8ebf;" vertex="1" parent="GzmpIsJMWXtsvFWi_bjF-85">
          <mxGeometry x="50" y="80" width="140" height="30" as="geometry" />
        </mxCell>
        <mxCell id="GzmpIsJMWXtsvFWi_bjF-90" value="containerd" style="rounded=0;whiteSpace=wrap;html=1;fillColor=#bac8d3;strokeColor=#23445d;" vertex="1" parent="GzmpIsJMWXtsvFWi_bjF-85">
          <mxGeometry x="50" y="140" width="140" height="30" as="geometry" />
        </mxCell>
        <mxCell id="GzmpIsJMWXtsvFWi_bjF-91" value="" style="group" vertex="1" connectable="0" parent="1">
          <mxGeometry x="860" y="-250" width="240" height="170" as="geometry" />
        </mxCell>
        <mxCell id="GzmpIsJMWXtsvFWi_bjF-92" value="Worker node&lt;br&gt;&lt;span style=&quot;font-weight: normal;&quot;&gt;172.16.0.203&lt;/span&gt;" style="rounded=1;whiteSpace=wrap;html=1;fillColor=#f5f5f5;fontColor=#333333;strokeColor=#666666;align=left;verticalAlign=top;fontStyle=1;fontSize=18;spacingTop=5;spacing=0;spacingLeft=10;arcSize=3;" vertex="1" parent="GzmpIsJMWXtsvFWi_bjF-91">
          <mxGeometry width="240" height="170" as="geometry" />
        </mxCell>
        <mxCell id="GzmpIsJMWXtsvFWi_bjF-93" value="" style="aspect=fixed;sketch=0;html=1;dashed=0;whitespace=wrap;fillColor=#2875E2;strokeColor=#ffffff;points=[[0.005,0.63,0],[0.1,0.2,0],[0.9,0.2,0],[0.5,0,0],[0.995,0.63,0],[0.72,0.99,0],[0.5,1,0],[0.28,0.99,0]];shape=mxgraph.kubernetes.icon2;kubernetesLabel=1;prIcon=node" vertex="1" parent="GzmpIsJMWXtsvFWi_bjF-91">
          <mxGeometry x="180" y="10" width="50" height="48" as="geometry" />
        </mxCell>
        <mxCell id="GzmpIsJMWXtsvFWi_bjF-94" value="kubelet" style="rounded=0;whiteSpace=wrap;html=1;fillColor=#dae8fc;strokeColor=#6c8ebf;" vertex="1" parent="GzmpIsJMWXtsvFWi_bjF-91">
          <mxGeometry x="50" y="110" width="140" height="30" as="geometry" />
        </mxCell>
        <mxCell id="GzmpIsJMWXtsvFWi_bjF-95" value="kube-proxy" style="rounded=0;whiteSpace=wrap;html=1;fillColor=#dae8fc;strokeColor=#6c8ebf;" vertex="1" parent="GzmpIsJMWXtsvFWi_bjF-91">
          <mxGeometry x="50" y="80" width="140" height="30" as="geometry" />
        </mxCell>
        <mxCell id="GzmpIsJMWXtsvFWi_bjF-96" value="containerd" style="rounded=0;whiteSpace=wrap;html=1;fillColor=#bac8d3;strokeColor=#23445d;" vertex="1" parent="GzmpIsJMWXtsvFWi_bjF-91">
          <mxGeometry x="50" y="140" width="140" height="30" as="geometry" />
        </mxCell>
        <mxCell id="GzmpIsJMWXtsvFWi_bjF-102" style="edgeStyle=orthogonalEdgeStyle;rounded=0;orthogonalLoop=1;jettySize=auto;html=1;exitX=1;exitY=0.5;exitDx=0;exitDy=0;entryX=0;entryY=0.5;entryDx=0;entryDy=0;" edge="1" parent="1" source="GzmpIsJMWXtsvFWi_bjF-100" target="GzmpIsJMWXtsvFWi_bjF-44">
          <mxGeometry relative="1" as="geometry" />
        </mxCell>
        <mxCell id="GzmpIsJMWXtsvFWi_bjF-100" value="Client (kubectl)" style="strokeColor=#dddddd;shadow=1;strokeWidth=1;rounded=1;absoluteArcSize=1;arcSize=2;labelPosition=center;verticalLabelPosition=middle;align=center;verticalAlign=bottom;spacingLeft=0;fontColor=#999999;fontSize=12;whiteSpace=wrap;spacingBottom=2;html=1;" vertex="1" parent="1">
          <mxGeometry x="130" y="20" width="70" height="100" as="geometry" />
        </mxCell>
        <mxCell id="GzmpIsJMWXtsvFWi_bjF-101" value="" style="sketch=0;dashed=0;connectable=0;html=1;fillColor=#757575;strokeColor=none;shape=mxgraph.gcp2.desktop;part=1;" vertex="1" parent="GzmpIsJMWXtsvFWi_bjF-100">
          <mxGeometry x="0.5" width="50" height="45" relative="1" as="geometry">
            <mxPoint x="-25" y="12.5" as="offset" />
          </mxGeometry>
        </mxCell>
      </root>
    </mxGraphModel>
  </diagram>
</mxfile>
